<svg width="417" height="235" viewBox="0 0 417 235" fill="none" xmlns="http://www.w3.org/2000/svg">
<path fill-rule="evenodd" clip-rule="evenodd" d="M0.211237 0.300514L0 0.42247L0.211237 0.544426L0.211227 234.301L0 234.422L0.211227 234.544L0.211227 235H3.00034L2.09752 234.479L203.211 118.366V118.568V235H204.634V118.568V118.366L405.747 234.479L404.845 235H407.634V234.544L407.845 234.422L407.634 234.301V0.544411L407.845 0.42247L407.634 0.300529V0H405.113L405.747 0.366165L204.634 116.479L204.634 116.277V0H203.211V116.277V116.479L2.09754 0.366158L2.73174 0H0.211237L0.211237 0.300514ZM19.8308 0L19.0991 0.422417L195.084 102.027V0H194.084V100.295L21.0992 0.422417L21.8308 0H19.8308ZM36.2015 0L35.4698 0.422455L186.899 87.85V0H185.899V86.118L37.4698 0.422455L38.2015 0H36.2015ZM55.3007 0L54.569 0.422447L177.349 71.3097V0H176.349V69.5776L56.569 0.422447L57.3007 0H55.3007ZM71.6715 0L70.9397 0.422493L169.164 57.1323V0H168.164V55.4002L72.9397 0.422493L73.6715 0H71.6715ZM90.7704 0L90.0389 0.422363L159.614 40.5918V0H158.614V38.8597L92.0389 0.422363L92.7704 0H90.7704ZM109.87 0L109.138 0.422363L150.065 24.0514V0H149.065V22.3194L111.138 0.422363L111.87 0H109.87ZM123.512 0L122.78 0.422409L143.244 12.237V0H142.244V10.5049L124.78 0.422409L125.512 0H123.512ZM212.761 0V102.027L388.746 0.422417L388.014 0H386.014L386.746 0.422417L213.761 100.295V0H212.761ZM220.946 0V87.85L372.375 0.422455L371.643 0H369.643L370.375 0.422455L221.946 86.118V0H220.946ZM230.496 0V71.3097L353.276 0.422447L352.544 0H350.544L351.276 0.422447L231.496 69.5776V0H230.496ZM238.681 0V57.1323L336.905 0.422493L336.173 0H334.173L334.905 0.422493L239.681 55.4002V0H238.681ZM248.231 0V40.5918L317.806 0.422363L317.075 0H315.075L315.806 0.422363L249.231 38.8597V0H248.231ZM257.78 0V24.0514L298.707 0.422363L297.975 0H295.975L296.707 0.422363L258.78 22.3194V0H257.78ZM264.601 0V12.237L285.065 0.422409L284.333 0H282.333L283.065 0.422409L265.601 10.5049V0H264.601ZM387.745 235L388.746 234.422L212.761 132.817V235H213.761V134.549L386.746 234.422L385.745 235H387.745ZM371.375 235L372.375 234.422L220.946 146.995V235H221.946V148.727L370.375 234.422L369.375 235H371.375ZM352.276 235L353.276 234.422L230.496 163.535V235H231.496V165.267L351.276 234.422L350.276 235H352.276ZM335.905 235L336.905 234.422L238.681 177.713V235H239.681V179.445L334.905 234.422L333.905 235H335.905ZM316.806 235L317.806 234.422L248.231 194.253V235H249.231V195.985L315.806 234.422L314.806 235H316.806ZM297.706 235L298.707 234.422L257.78 210.793V235H258.78V212.525L296.707 234.422L295.706 235H297.706ZM284.064 235L285.065 234.422L264.601 222.608V235H265.601V224.34L283.065 234.422L282.064 235H284.064ZM195.084 235V132.817L19.0991 234.422L20.0996 235H22.0996L21.0992 234.422L194.084 134.549V235H195.084ZM186.899 235V146.995L35.4698 234.422L36.4702 235H38.4702L37.4698 234.422L185.899 148.727V235H186.899ZM177.349 235V163.535L54.569 234.422L55.5694 235H57.5694L56.569 234.422L176.349 165.267V235H177.349ZM169.164 235V177.713L70.9397 234.422L71.94 235H73.94L72.9397 234.422L168.164 179.445V235H169.164ZM159.614 235V194.253L90.0389 234.422L91.0394 235H93.0394L92.0389 234.422L158.614 195.985V235H159.614ZM150.065 235V210.793L109.138 234.422L110.139 235H112.139L111.138 234.422L149.065 212.525V235H150.065ZM143.244 235V222.608L122.78 234.422L123.781 235H125.781L124.78 234.422L142.244 224.34V235H143.244ZM202.65 117.422L1.21124 1.12178L1.21123 233.723L202.65 117.422ZM406.634 233.723L205.195 117.422L406.634 1.12177V233.723ZM222.099 117.422L398.084 15.8174L398.084 219.027L222.099 117.422ZM224.099 117.422L397.084 17.5494L397.084 217.295L224.099 117.422ZM389.899 29.9949L238.47 117.422L389.899 204.85V29.9949ZM388.899 31.7269L240.47 117.422L388.899 203.118V31.7269ZM257.569 117.422L380.349 46.5352V188.31L257.569 117.422ZM259.569 117.422L379.349 48.2673V186.578L259.569 117.422ZM372.164 60.7127L273.94 117.422L372.164 174.132V60.7127ZM371.164 62.4448L275.94 117.422L371.164 172.4V62.4448ZM293.039 117.422L362.614 77.2529V157.592L293.039 117.422ZM295.039 117.422L361.614 78.985V155.86L295.039 117.422ZM353.065 93.7933L312.138 117.422L353.065 141.051V93.7933ZM352.065 95.5253L314.138 117.422L352.065 139.319V95.5253ZM325.78 117.422L346.244 105.608V129.237L325.78 117.422ZM327.78 117.422L345.244 107.34V127.505L327.78 117.422ZM185.746 117.422L9.7608 15.8174L9.76079 219.027L185.746 117.422ZM183.746 117.422L10.7608 17.5494L10.7608 217.295L183.746 117.422ZM17.9462 29.9949L169.375 117.422L17.9462 204.85L17.9462 29.9949ZM18.9462 31.7269L167.375 117.422L18.9462 203.118L18.9462 31.7269ZM150.276 117.422L27.4958 46.5352L27.4958 188.31L150.276 117.422ZM148.276 117.422L28.4958 48.2673L28.4958 186.578L148.276 117.422ZM35.6811 60.7127L133.905 117.422L35.6811 174.132L35.6811 60.7127ZM36.6811 62.4448L131.905 117.422L36.6811 172.4L36.6811 62.4448ZM114.806 117.422L45.2307 77.2529L45.2306 157.592L114.806 117.422ZM112.806 117.422L46.2307 78.985L46.2306 155.86L112.806 117.422ZM54.7802 93.7933L95.7069 117.422L54.7802 141.051L54.7802 93.7933ZM55.7802 95.5253L93.7069 117.422L55.7802 139.319L55.7802 95.5253ZM82.0648 117.422L61.6014 105.608V129.237L82.0648 117.422ZM80.0648 117.422L62.6014 107.34V127.505L80.0648 117.422Z" fill="#878787" fill-opacity="0.13"/>
</svg>
